<?xml version="1.0" standalone="no"?>
<!DOCTYPE svg PUBLIC "-//W3C//DTD SVG 20010904//EN"
 "http://www.w3.org/TR/2001/REC-SVG-20010904/DTD/svg10.dtd">
<svg version="1.0" xmlns="http://www.w3.org/2000/svg"
 width="221.000000pt" height="199.000000pt" viewBox="0 0 221.000000 199.000000"
 preserveAspectRatio="xMidYMid meet">

<g transform="translate(0.000000,199.000000) scale(0.100000,-0.100000)"
fill="#000000" stroke="none">
<path d="M800 1480 c0 -242 3 -440 6 -440 4 0 58 27 120 61 l114 60 0 380 0
379 -120 0 -120 0 0 -440z"/>
<path d="M490 1259 c0 -358 1 -391 16 -385 9 4 61 31 115 62 l99 55 0 330 0
329 -115 0 -115 0 0 -391z"/>
<path d="M1110 1352 c0 -156 2 -170 20 -187 19 -17 20 -31 20 -212 0 -107 3
-193 8 -191 4 2 49 32 100 68 l92 64 0 313 0 313 -120 0 -120 0 0 -168z"/>
<path d="M1900 1329 c0 -6 9 -22 20 -37 14 -18 17 -29 10 -36 -6 -6 -191 -139
-413 -296 l-402 -286 -3 225 c-1 124 -6 229 -11 234 -8 8 -959 -500 -989 -528
-11 -10 -10 -20 8 -54 11 -23 27 -44 34 -47 7 -3 195 94 417 216 222 121 407
220 412 220 4 0 7 -108 7 -239 0 -132 4 -242 9 -245 5 -3 233 154 507 349 275
195 502 355 506 355 3 0 16 -16 28 -35 12 -19 27 -35 34 -35 11 0 47 84 102
233 6 16 -5 17 -135 17 -95 0 -141 -4 -141 -11z"/>
<path d="M290 290 l0 -170 30 0 29 0 3 75 3 76 63 -76 c56 -67 66 -75 97 -75
19 0 35 3 35 7 0 6 -60 79 -123 150 l-19 21 73 79 73 78 -35 3 c-31 4 -40 -2
-101 -70 l-68 -73 0 73 0 72 -30 0 -30 0 0 -170z"/>
<path d="M600 290 l0 -170 30 0 30 0 0 170 0 170 -30 0 -30 0 0 -170z"/>
<path d="M700 436 c0 -22 5 -25 43 -28 l42 -3 3 -143 3 -143 27 3 27 3 3 143
3 142 39 0 c36 0 40 3 40 25 l0 25 -115 0 -115 0 0 -24z"/>
<path d="M1052 368 c-22 -51 -57 -128 -76 -171 l-35 -77 34 0 c29 0 36 4 41
25 6 24 9 25 84 25 75 0 78 -1 84 -25 5 -20 13 -25 36 -25 17 0 30 4 30 10 0
16 -143 330 -150 330 -4 0 -25 -42 -48 -92z m74 -80 c10 -29 21 -56 22 -60 2
-4 -20 -8 -48 -8 -28 0 -50 4 -48 8 2 4 12 31 22 60 11 29 23 52 26 52 3 0 15
-23 26 -52z"/>
<path d="M1300 290 l0 -173 83 5 c135 7 192 57 192 168 0 111 -57 161 -192
168 l-83 5 0 -173z m143 109 c66 -18 94 -90 63 -164 -17 -40 -43 -56 -99 -58
l-42 -2 -3 104 c-1 58 0 111 2 118 6 16 28 16 79 2z"/>
<path d="M1634 447 c-2 -7 -3 -82 -2 -167 l3 -155 28 -3 27 -3 0 170 0 171
-25 0 c-14 0 -28 -6 -31 -13z"/>
</g>
</svg>
