<?xml version="1.0" standalone="no"?>
<!DOCTYPE svg PUBLIC "-//W3C//DTD SVG 20010904//EN"
 "http://www.w3.org/TR/2001/REC-SVG-20010904/DTD/svg10.dtd">
<svg version="1.0" xmlns="http://www.w3.org/2000/svg"
 width="500.000000pt" height="500.000000pt" viewBox="0 0 500.000000 500.000000"
 preserveAspectRatio="xMidYMid meet">

<g transform="translate(0.000000,500.000000) scale(0.100000,-0.100000)"
fill="#000000" stroke="none">
<path d="M1750 3459 c0 -564 4 -969 9 -967 5 2 124 66 265 142 l256 139 0 829
0 828 -265 0 -265 0 0 -971z"/>
<path d="M1070 2980 c0 -473 2 -860 5 -860 2 0 122 64 265 141 l260 142 0 718
0 719 -265 0 -265 0 0 -860z"/>
<path d="M2430 3183 l0 -368 29 -17 c67 -37 65 -29 71 -488 l5 -417 207 146
207 146 1 683 0 682 -260 0 -260 0 0 -367z"/>
<path d="M4450 3170 c-151 -3 -281 -9 -287 -13 -21 -13 -15 -30 32 -98 46 -64
46 -64 25 -81 -37 -30 -1770 -1263 -1780 -1266 -7 -2 -10 171 -10 486 0 270
-3 497 -6 506 -3 9 -14 16 -25 16 -16 0 -2115 -1136 -2146 -1162 -22 -18 -14
-50 35 -138 34 -60 54 -86 69 -88 13 -2 355 179 904 478 485 265 888 484 896
487 10 4 13 -90 15 -528 l3 -534 22 -3 c17 -2 316 206 1102 765 594 422 1084
769 1089 771 5 1 33 -33 63 -77 55 -81 69 -94 92 -86 16 7 218 531 211 549 -3
8 -11 16 -17 18 -7 2 -136 1 -287 -2z"/>
<path d="M2715 1004 c-82 -173 -323 -729 -319 -735 3 -5 35 -9 70 -9 l66 0 26
60 27 60 160 0 161 0 13 -37 c27 -77 35 -83 106 -83 35 0 66 3 68 8 5 7 -317
738 -335 760 -16 19 -24 15 -43 -24z m85 -364 c28 -68 50 -130 50 -137 0 -10
-26 -13 -111 -13 -85 0 -110 3 -106 13 3 6 24 59 47 117 23 58 46 116 51 129
5 13 12 22 14 19 3 -3 28 -60 55 -128z"/>
<path d="M935 1008 c-3 -7 -4 -177 -3 -378 l3 -365 65 0 65 0 5 164 5 165 140
-167 140 -167 82 0 c60 0 83 4 83 13 0 6 -70 94 -155 194 -85 101 -155 186
-155 190 0 5 70 84 155 177 85 93 152 173 149 178 -3 4 -39 8 -79 8 l-74 0
-143 -155 -143 -155 -5 153 -5 152 -63 3 c-44 2 -64 -1 -67 -10z"/>
<path d="M1625 1007 c-3 -6 -4 -176 -3 -377 l3 -365 68 -3 67 -3 0 381 0 380
-65 0 c-43 0 -67 -4 -70 -13z"/>
<path d="M1854 1006 c-3 -7 -4 -33 -2 -57 l3 -44 93 -3 92 -3 0 -320 0 -320
68 3 67 3 3 318 2 317 90 0 90 0 0 60 0 60 -250 0 c-204 0 -252 -3 -256 -14z"/>
<path d="M3190 640 l0 -380 133 0 c73 0 160 5 193 11 201 37 308 189 291 414
-13 176 -118 292 -291 324 -33 6 -120 11 -193 11 l-133 0 0 -380z m360 222
c73 -37 110 -95 117 -186 15 -180 -71 -278 -255 -293 l-82 -6 0 263 0 263 83
-7 c60 -4 96 -13 137 -34z"/>
<path d="M3935 1007 c-3 -6 -4 -176 -3 -377 l3 -365 68 -3 67 -3 0 381 0 380
-65 0 c-43 0 -67 -4 -70 -13z"/>
</g>
</svg>
